<?xml version="1.0" encoding="UTF-8"?>
<svg xmlns="http://www.w3.org/2000/svg" xmlns:xlink="http://www.w3.org/1999/xlink" width="125px" height="125px" viewBox="0 0 125 125" version="1.1">
<g id="surface1">
<path style=" stroke:none;fill-rule:evenodd;fill:rgb(0%,0%,0%);fill-opacity:1;" d="M 39.878906 60.464844 L 37.804688 60.464844 L 37.804688 64.4375 C 37.804688 65.5 38.515625 65.480469 39.878906 65.429688 L 39.878906 67.039062 C 37.101562 67.367188 36.003906 66.605469 36.003906 64.457031 L 36.003906 60.488281 L 34.472656 60.488281 L 34.472656 58.757812 L 36.003906 58.757812 L 36.003906 56.53125 L 37.804688 56 L 37.804688 58.757812 L 39.878906 58.757812 Z M 47.78125 58.738281 L 49.578125 58.738281 L 49.578125 67.023438 L 47.78125 67.023438 L 47.78125 65.824219 C 47.140625 66.703125 46.148438 67.234375 44.84375 67.234375 C 42.566406 67.234375 40.683594 65.332031 40.683594 62.882812 C 40.683594 60.410156 42.578125 58.527344 44.84375 58.527344 C 46.148438 58.527344 47.140625 59.054688 47.78125 59.914062 Z M 45.128906 65.539062 C 46.644531 65.539062 47.78125 64.4375 47.78125 62.882812 C 47.78125 61.335938 46.644531 60.21875 45.128906 60.21875 C 43.632812 60.21875 42.484375 61.324219 42.484375 62.882812 C 42.484375 64.4375 43.632812 65.539062 45.128906 65.539062 Z M 52.585938 57.5 C 51.953125 57.5 51.433594 56.96875 51.433594 56.359375 C 51.433594 55.730469 51.953125 55.21875 52.585938 55.21875 C 53.222656 55.21875 53.742188 55.730469 53.742188 56.359375 C 53.757812 56.96875 53.222656 57.5 52.585938 57.5 Z M 51.691406 67.023438 L 51.691406 58.738281 L 53.488281 58.738281 L 53.488281 67.023438 Z M 55.578125 67.023438 L 55.578125 54.917969 L 57.382812 54.917969 L 57.382812 67.023438 Z M 69.113281 58.738281 L 71.007812 58.738281 L 68.386719 67.023438 L 66.621094 67.023438 L 64.878906 61.433594 L 63.117188 67.023438 L 61.347656 67.023438 L 58.726562 58.738281 L 60.617188 58.738281 L 62.25 64.457031 L 64.015625 58.738281 L 65.742188 58.738281 L 67.484375 64.457031 Z M 73.277344 57.5 C 72.644531 57.5 72.125 56.96875 72.125 56.359375 C 72.125 55.730469 72.644531 55.21875 73.277344 55.21875 C 73.90625 55.21875 74.421875 55.730469 74.421875 56.359375 C 74.421875 56.96875 73.90625 57.5 73.277344 57.5 Z M 72.355469 67.023438 L 72.355469 58.738281 L 74.15625 58.738281 L 74.15625 67.023438 Z M 80.65625 58.527344 C 82.53125 58.527344 83.878906 59.78125 83.878906 61.949219 L 83.878906 67.039062 L 82.074219 67.039062 L 82.074219 62.117188 C 82.074219 60.867188 81.347656 60.199219 80.195312 60.199219 C 79.007812 60.199219 78.066406 60.902344 78.066406 62.597656 L 78.066406 67.039062 L 76.265625 67.039062 L 76.265625 58.757812 L 78.066406 58.757812 L 78.066406 59.816406 C 78.621094 58.945312 79.527344 58.527344 80.65625 58.527344 Z M 92.425781 55.425781 L 94.230469 55.425781 L 94.230469 67.039062 L 92.425781 67.039062 L 92.425781 65.847656 C 91.796875 66.71875 90.792969 67.25 89.492188 67.25 C 87.210938 67.25 85.332031 65.347656 85.332031 62.894531 C 85.332031 60.429688 87.234375 58.546875 89.492188 58.546875 C 90.792969 58.546875 91.796875 59.078125 92.425781 59.933594 Z M 89.800781 65.539062 C 91.3125 65.539062 92.445312 64.4375 92.445312 62.882812 C 92.445312 61.335938 91.3125 60.21875 89.800781 60.21875 C 88.308594 60.21875 87.152344 61.324219 87.152344 62.882812 C 87.152344 64.4375 88.285156 65.539062 89.800781 65.539062 Z M 100.289062 67.25 C 97.757812 67.25 95.878906 65.347656 95.878906 62.894531 C 95.878906 60.429688 97.78125 58.546875 100.289062 58.546875 C 101.941406 58.546875 103.355469 59.382812 104.03125 60.695312 L 102.476562 61.589844 C 102.109375 60.808594 101.28125 60.3125 100.289062 60.3125 C 98.816406 60.3125 97.699219 61.417969 97.699219 62.917969 C 97.699219 64.421875 98.816406 65.519531 100.289062 65.519531 C 101.28125 65.519531 102.109375 65.007812 102.507812 64.25 L 104.0625 65.125 C 103.355469 66.398438 101.941406 67.25 100.289062 67.25 Z M 107.035156 61.039062 C 107.035156 62.539062 111.542969 61.625 111.542969 64.703125 C 111.542969 66.359375 110.085938 67.25 108.28125 67.25 C 106.613281 67.25 105.40625 66.507812 104.871094 65.3125 L 106.417969 64.421875 C 106.6875 65.164062 107.363281 65.617188 108.28125 65.617188 C 109.085938 65.617188 109.703125 65.347656 109.703125 64.6875 C 109.703125 63.199219 105.195312 64.042969 105.195312 61.078125 C 105.195312 59.519531 106.554688 58.546875 108.261719 58.546875 C 109.640625 58.546875 110.777344 59.175781 111.347656 60.28125 L 109.832031 61.113281 C 109.527344 60.464844 108.953125 60.160156 108.261719 60.160156 C 107.613281 60.144531 107.035156 60.429688 107.035156 61.039062 Z M 114.742188 61.039062 C 114.742188 62.539062 119.246094 61.625 119.246094 64.703125 C 119.246094 66.359375 117.792969 67.25 115.988281 67.25 C 114.320312 67.25 113.117188 66.507812 112.578125 65.3125 L 114.128906 64.421875 C 114.398438 65.164062 115.070312 65.617188 115.988281 65.617188 C 116.796875 65.617188 117.410156 65.347656 117.410156 64.6875 C 117.410156 63.199219 112.898438 64.042969 112.898438 61.078125 C 112.898438 59.519531 114.261719 58.546875 115.972656 58.546875 C 117.347656 58.546875 118.484375 59.175781 119.054688 60.28125 L 117.542969 61.113281 C 117.234375 60.464844 116.660156 60.160156 115.972656 60.160156 C 115.320312 60.144531 114.742188 60.429688 114.742188 61.039062 Z M 114.742188 61.039062 "/>
<path style=" stroke:none;fill-rule:evenodd;fill:rgb(2.352941%,71.372549%,83.137255%);fill-opacity:1;" d="M 16.105469 54.519531 C 12.9375 54.519531 10.945312 56.097656 10.160156 59.230469 C 11.347656 57.65625 12.730469 57.066406 14.320312 57.464844 C 15.226562 57.695312 15.875 58.339844 16.582031 59.054688 C 17.753906 60.242188 19.097656 61.589844 22.042969 61.589844 C 25.207031 61.589844 27.207031 60.011719 27.992188 56.875 C 26.800781 58.453125 25.421875 59.039062 23.828125 58.640625 C 22.929688 58.414062 22.273438 57.765625 21.570312 57.042969 C 20.402344 55.867188 19.054688 54.519531 16.105469 54.519531 Z M 10.160156 61.570312 C 6.996094 61.570312 5.007812 63.144531 4.21875 66.277344 C 5.40625 64.703125 6.789062 64.117188 8.378906 64.511719 C 9.277344 64.742188 9.929688 65.390625 10.640625 66.109375 C 11.8125 67.285156 13.148438 68.640625 16.105469 68.640625 C 19.269531 68.640625 21.257812 67.058594 22.042969 63.921875 C 20.859375 65.5 19.476562 66.09375 17.882812 65.691406 C 16.988281 65.46875 16.335938 64.816406 15.625 64.097656 C 14.453125 62.9375 13.117188 61.570312 10.160156 61.570312 Z M 10.160156 61.570312 "/>
</g>
</svg>
