<?xml version="1.0" encoding="UTF-8"?>
<svg xmlns="http://www.w3.org/2000/svg" xmlns:xlink="http://www.w3.org/1999/xlink" width="50px" height="50px" viewBox="0 0 50 50" version="1.1">
<g id="surface1">
<path style=" stroke:none;fill-rule:nonzero;fill:rgb(19.215686%,47.058824%,77.647059%);fill-opacity:1;" d="M 4.886719 0 L 45.121094 0 C 47.816406 0 50.003906 2.183594 50.003906 4.886719 L 50.003906 45.121094 C 50.003906 47.816406 47.820312 50.003906 45.121094 50.003906 L 4.886719 50.003906 C 2.183594 50 0 47.816406 0 45.113281 L 0 4.886719 C 0 2.183594 2.183594 0 4.886719 0 Z M 4.886719 0 "/>
<path style=" stroke:none;fill-rule:evenodd;fill:rgb(100%,100%,100%);fill-opacity:1;" d="M 30.953125 39.746094 L 30.953125 44.628906 C 31.746094 45.039062 32.714844 45.34375 33.785156 45.550781 C 34.855469 45.753906 36.03125 45.855469 37.203125 45.855469 C 38.378906 45.855469 39.449219 45.75 40.523438 45.523438 C 41.601562 45.300781 42.480469 44.929688 43.261719 44.449219 C 44.050781 43.929688 44.726562 43.28125 45.113281 42.398438 C 45.503906 41.519531 45.808594 40.546875 45.808594 39.273438 C 45.808594 38.386719 45.675781 37.613281 45.410156 36.929688 C 45.144531 36.246094 44.765625 35.660156 44.238281 35.171875 C 43.738281 34.648438 43.164062 34.195312 42.480469 33.804688 C 41.796875 33.414062 41.015625 33.003906 40.136719 32.636719 C 39.488281 32.371094 38.964844 32.113281 38.375 31.863281 C 37.863281 31.609375 37.429688 31.355469 37.105469 31.105469 C 36.746094 30.839844 36.46875 30.570312 36.273438 30.285156 C 36.078125 29.988281 35.980469 29.671875 35.980469 29.308594 C 35.980469 28.980469 36.066406 28.675781 36.246094 28.398438 C 36.421875 28.125 36.664062 27.898438 36.976562 27.703125 C 37.289062 27.511719 37.679688 27.363281 38.144531 27.253906 C 38.605469 27.148438 39.109375 27.101562 39.710938 27.101562 C 40.121094 27.101562 40.550781 27.128906 40.980469 27.191406 C 41.429688 27.25 41.890625 27.34375 42.34375 27.476562 C 42.804688 27.601562 43.253906 27.761719 43.710938 27.953125 C 44.140625 28.148438 44.539062 28.375 44.878906 28.628906 L 44.878906 24.039062 C 44.140625 23.753906 43.316406 23.539062 42.441406 23.40625 C 41.558594 23.269531 40.585938 23.199219 39.414062 23.199219 C 38.246094 23.199219 37.171875 23.324219 36.09375 23.570312 C 35.019531 23.816406 34.140625 24.203125 33.359375 24.738281 C 32.570312 25.265625 31.996094 25.910156 31.503906 26.789062 C 31.046875 27.609375 30.820312 28.550781 30.820312 29.71875 C 30.820312 31.183594 31.238281 32.453125 32.089844 33.429688 C 32.929688 34.503906 34.238281 35.285156 35.898438 36.066406 C 36.574219 36.339844 37.171875 36.609375 37.753906 36.875 C 38.339844 37.140625 38.828125 37.410156 39.21875 37.695312 C 39.640625 37.980469 39.96875 38.289062 40.195312 38.625 C 40.441406 38.953125 40.566406 39.351562 40.566406 39.796875 C 40.566406 40.109375 40.488281 40.398438 40.339844 40.675781 C 40.191406 40.949219 39.960938 41.183594 39.644531 41.378906 C 39.328125 41.574219 38.949219 41.730469 38.476562 41.851562 C 38.015625 41.953125 37.5 42.015625 36.816406 42.015625 C 35.738281 42.015625 34.664062 41.828125 33.691406 41.460938 C 32.613281 41.089844 31.640625 40.53125 30.761719 39.800781 Z M 22.753906 27.734375 L 29.003906 27.734375 L 29.003906 23.730469 L 11.523438 23.730469 L 11.523438 27.734375 L 17.773438 27.734375 L 17.773438 45.605469 L 22.753906 45.605469 Z M 22.753906 27.734375 "/>
</g>
</svg>
